<svg xmlns="http://www.w3.org/2000/svg" width="800" height="800" viewBox="0 0 800 800" version="1.1">
	<path d="M 280.500 86.600 C 267.493 87.602, 246.783 91.503, 235 95.171 C 199.538 106.209, 170.657 123.756, 145.647 149.457 C 115.847 180.081, 97.123 216.808, 89.291 260 C 87.020 272.523, 86.657 277.295, 86.630 295 C 86.587 323.414, 90.129 343.572, 99.631 369 C 104.291 381.468, 116.716 405.852, 121.289 411.500 C 121.734 412.050, 124.349 415.627, 127.100 419.449 C 134.602 429.873, 143.887 439.976, 157.835 452.894 C 163.399 458.046, 178.645 469.247, 186.500 473.953 C 190.350 476.260, 194.175 478.556, 195 479.055 C 200.187 482.195, 214.551 488.257, 217.722 488.644 C 228.374 489.943, 235.714 477.311, 229.356 468.620 C 228.334 467.224, 221.880 463.206, 215 459.684 C 188.756 446.248, 169.148 430.539, 152.317 409.469 C 148.006 404.071, 144.656 399.264, 137.355 388 C 133.972 382.781, 125 363.368, 123.291 357.570 C 122.469 354.781, 121.450 352.050, 121.027 351.500 C 120.183 350.404, 115.743 331.318, 113.930 321 C 112.470 312.685, 112.458 278.649, 113.913 269.500 C 120.329 229.143, 137.904 194.192, 165.814 166.283 C 194.653 137.445, 227.728 120.756, 269.500 113.965 C 278.501 112.502, 311.412 112.476, 320.500 113.925 C 329.821 115.412, 350.244 120.068, 351.500 120.994 C 352.050 121.399, 355.425 122.662, 359 123.800 C 365.236 125.786, 382.558 134.156, 392 139.744 C 408.736 149.651, 429.784 169.222, 442.402 186.610 C 457.087 206.847, 466.136 225.682, 472.377 249 C 477.772 269.158, 478 274.661, 478 384.464 L 478 485.487 449.244 456.744 C 419.105 426.619, 417.374 425.276, 410.351 426.594 C 406.179 427.377, 401.213 432.347, 400.429 436.526 C 400.084 438.365, 400.297 441.371, 400.903 443.206 C 401.679 445.558, 414.080 458.611, 442.928 487.440 C 465.436 509.934, 484.447 528.650, 485.176 529.031 C 487.957 530.488, 492.627 530.763, 495.767 529.654 C 498.749 528.601, 532.937 495.319, 571.250 456.174 C 582.611 444.566, 583 444.024, 583 439.816 C 583 433.793, 579.268 428.418, 574.123 427.033 C 566.032 424.854, 565.766 425.049, 534.327 456.271 L 505.154 485.242 504.728 380.871 C 504.261 266.641, 504.383 269.149, 498.094 244.105 C 493.810 227.040, 484.025 202.347, 477.609 192.405 C 476.449 190.608, 472.946 185.169, 469.825 180.319 C 446.668 144.333, 410.728 115.426, 370 100.029 C 346.958 91.318, 325.702 87.199, 300.623 86.585 C 292.305 86.381, 283.250 86.388, 280.500 86.600 M 305.098 270.114 C 302.331 270.680, 294.206 278.294, 261.305 311.154 C 239.088 333.344, 219.975 352.992, 218.832 354.817 C 215.315 360.431, 217.849 369.165, 223.797 371.932 C 228.174 373.967, 234.434 373.234, 238.150 370.250 C 240.033 368.738, 253.391 355.688, 267.835 341.250 C 282.278 326.813, 294.524 315, 295.047 315 C 295.645 315, 296 353.588, 296 418.449 C 296 530.475, 296.112 533.229, 301.516 554.500 C 305.867 571.625, 314.534 594.127, 320.966 605 C 334.094 627.193, 348.002 645.074, 360.982 656.448 C 362.898 658.127, 365.598 660.685, 366.982 662.134 C 370.857 666.188, 388.515 678.987, 398.090 684.683 C 421.057 698.343, 442.625 706.007, 474 711.660 C 488.816 714.329, 522.693 714.059, 538.500 711.146 C 589.893 701.675, 631.331 678.268, 663.568 640.500 C 689.454 610.173, 703.992 578.582, 711.659 536 C 714.334 521.140, 714.059 486.332, 711.141 470.500 C 705.996 442.580, 696.168 416.122, 683.193 395.253 C 671.796 376.923, 652.944 355.520, 636.725 342.496 C 618.211 327.630, 591.974 312.579, 582.505 311.393 C 570.939 309.945, 563.560 324.064, 571.676 332.115 C 573.229 333.656, 579.289 337.343, 585.142 340.309 C 614.793 355.336, 638.563 375.907, 655.470 401.173 C 664.124 414.105, 664.827 415.323, 669.916 426.209 C 677.790 443.051, 683.484 461.832, 686.029 479.358 C 687.510 489.564, 687.521 519.368, 686.046 529.546 C 676.152 597.831, 630.057 654.215, 565.423 677.093 C 544.943 684.341, 528.643 686.989, 504.500 686.989 C 485.733 686.989, 475.029 685.788, 460 681.996 C 425.668 673.334, 393.650 654.330, 370.064 628.614 C 365.269 623.387, 352.173 606.219, 348.697 600.605 C 340.476 587.326, 332.243 567.901, 327.674 551 C 321.784 529.211, 321.655 526.543, 321.249 418.063 C 321.044 363.373, 321.133 317.607, 321.445 316.361 C 321.944 314.375, 325.500 317.593, 350.257 342.429 C 365.791 358.013, 379.400 371.221, 380.500 371.780 C 382.570 372.832, 385.845 373.302, 389.765 373.111 C 391.010 373.050, 393.613 371.538, 395.549 369.750 C 399.877 365.754, 400.957 360.819, 398.594 355.838 C 397.698 353.951, 378.450 333.960, 355.734 311.323 C 311.985 267.727, 312.946 268.509, 305.098 270.114" stroke="none" fill="black" fill-rule="evenodd"/>
</svg>